<?xml version="1.0" standalone="no"?><svg xmlns="http://www.w3.org/2000/svg" viewBox="0 0 1440 320"><path fill="#ffd700" fill-opacity="1" d="M0,160L36.9,224L73.8,128L110.8,128L147.7,192L184.6,192L221.5,96L258.5,128L295.4,64L332.3,224L369.2,32L406.2,128L443.1,288L480,160L516.9,192L553.8,288L590.8,128L627.7,288L664.6,128L701.5,160L738.5,96L775.4,128L812.3,32L849.2,64L886.2,160L923.1,320L960,288L996.9,192L1033.8,224L1070.8,160L1107.7,32L1144.6,256L1181.5,224L1218.5,64L1255.4,128L1292.3,0L1329.2,128L1366.2,96L1403.1,160L1440,224L1440,0L1403.1,0L1366.2,0L1329.2,0L1292.3,0L1255.4,0L1218.5,0L1181.5,0L1144.6,0L1107.7,0L1070.8,0L1033.8,0L996.9,0L960,0L923.1,0L886.2,0L849.2,0L812.3,0L775.4,0L738.5,0L701.5,0L664.6,0L627.7,0L590.8,0L553.8,0L516.9,0L480,0L443.1,0L406.2,0L369.2,0L332.3,0L295.4,0L258.5,0L221.5,0L184.6,0L147.7,0L110.8,0L73.8,0L36.9,0L0,0Z"></path></svg>