<svg height="100%" width="100%" id="svg" viewBox="0 0 1440 700" xmlns="http://www.w3.org/2000/svg" class="transition duration-300 ease-in-out delay-150"><path d="M 0,700 C 0,700 0,350 0,350 C 29.793772980273843,297.90913489178024 59.587545960547686,245.81826978356045 97,226 C 134.4124540394523,206.18173021643955 179.4435891380831,218.63605575753843 218,241 C 256.5564108619169,263.36394424246157 288.6380974871199,295.63750718628586 328,322 C 367.3619025128801,348.36249281371414 414.0040209134374,368.81391549731825 449,391 C 483.9959790865626,413.18608450268175 507.34581885913065,437.1068308244412 538,390 C 568.6541811408694,342.8931691755588 606.6127036500403,224.75876120491682 651,241 C 695.3872963499597,257.2412387950832 746.2033665407077,407.85812435589145 789,417 C 831.7966334592923,426.14187564410855 866.5738301871288,293.8087413715174 901,270 C 935.4261698128712,246.19125862848261 969.5013127107768,330.906910158039 997,373 C 1024.4986872892232,415.093089841961 1045.4209189697642,414.5636179963265 1087,424 C 1128.5790810302358,433.4363820036735 1190.8150114101663,452.8386178566547 1233,455 C 1275.1849885898337,457.1613821433453 1297.3190353895707,442.0819105770545 1332,428 C 1366.6809646104293,413.9180894229455 1413.9088470315512,400.8337398351273 1434,388 C 1454.0911529684488,375.1662601648727 1447.0455764842245,362.58313008243636 1440,350 C 1440,350 1440,700 1440,700 Z" stroke="none" stroke-width="0" fill="#ffd700" class="transition-all duration-300 ease-in-out delay-150" transform="rotate(-180 720 350)"></path></svg>