<?xml version="1.0" standalone="no"?><svg xmlns="http://www.w3.org/2000/svg" viewBox="0 0 1440 320"><path fill="#ffd700" fill-opacity="1" d="M0,160L6.2,154.7C12.3,149,25,139,37,112C49.2,85,62,43,74,48C86.2,53,98,107,111,112C123.1,117,135,75,148,58.7C160,43,172,53,185,90.7C196.9,128,209,192,222,218.7C233.8,245,246,235,258,240C270.8,245,283,267,295,234.7C307.7,203,320,117,332,106.7C344.6,96,357,160,369,176C381.5,192,394,160,406,133.3C418.5,107,431,85,443,80C455.4,75,468,85,480,80C492.3,75,505,53,517,64C529.2,75,542,117,554,112C566.2,107,578,53,591,26.7C603.1,0,615,0,628,10.7C640,21,652,43,665,69.3C676.9,96,689,128,702,170.7C713.8,213,726,267,738,250.7C750.8,235,763,149,775,133.3C787.7,117,800,171,812,197.3C824.6,224,837,224,849,234.7C861.5,245,874,267,886,277.3C898.5,288,911,288,923,277.3C935.4,267,948,245,960,213.3C972.3,181,985,139,997,144C1009.2,149,1022,203,1034,213.3C1046.2,224,1058,192,1071,176C1083.1,160,1095,160,1108,154.7C1120,149,1132,139,1145,149.3C1156.9,160,1169,192,1182,213.3C1193.8,235,1206,245,1218,250.7C1230.8,256,1243,256,1255,240C1267.7,224,1280,192,1292,154.7C1304.6,117,1317,75,1329,69.3C1341.5,64,1354,96,1366,144C1378.5,192,1391,256,1403,261.3C1415.4,267,1428,213,1434,186.7L1440,160L1440,0L1433.8,0C1427.7,0,1415,0,1403,0C1390.8,0,1378,0,1366,0C1353.8,0,1342,0,1329,0C1316.9,0,1305,0,1292,0C1280,0,1268,0,1255,0C1243.1,0,1231,0,1218,0C1206.2,0,1194,0,1182,0C1169.2,0,1157,0,1145,0C1132.3,0,1120,0,1108,0C1095.4,0,1083,0,1071,0C1058.5,0,1046,0,1034,0C1021.5,0,1009,0,997,0C984.6,0,972,0,960,0C947.7,0,935,0,923,0C910.8,0,898,0,886,0C873.8,0,862,0,849,0C836.9,0,825,0,812,0C800,0,788,0,775,0C763.1,0,751,0,738,0C726.2,0,714,0,702,0C689.2,0,677,0,665,0C652.3,0,640,0,628,0C615.4,0,603,0,591,0C578.5,0,566,0,554,0C541.5,0,529,0,517,0C504.6,0,492,0,480,0C467.7,0,455,0,443,0C430.8,0,418,0,406,0C393.8,0,382,0,369,0C356.9,0,345,0,332,0C320,0,308,0,295,0C283.1,0,271,0,258,0C246.2,0,234,0,222,0C209.2,0,197,0,185,0C172.3,0,160,0,148,0C135.4,0,123,0,111,0C98.5,0,86,0,74,0C61.5,0,49,0,37,0C24.6,0,12,0,6,0L0,0Z"></path></svg>