<svg viewBox="0 0 56.693 56.693" xml:space="preserve" xmlns="http://www.w3.org/2000/svg"><path d="M23.761 27.96c.629 0 1.16-.248 1.57-.717.645-.732.928-1.936.76-3.215-.301-2.287-1.932-4.186-3.637-4.236h-.068c-.604 0-1.141.246-1.551.715-.637.725-.903 1.871-.736 3.146.299 2.283 1.965 4.256 3.635 4.307h.027zM25.622 34.847a63.986 63.986 0 0 1-.521-.355 5.898 5.898 0 0 0-1.654-.254h-.072c-2.625 0-4.929 1.592-4.929 3.406 0 1.971 1.972 3.518 4.491 3.518 3.322 0 5.006-1.145 5.006-3.404 0-.215-.025-.436-.076-.656-.225-.88-1.03-1.427-2.245-2.255z" fill="#f54f4f" class="fill-000000"></path><path d="M28.347 5.157C14.746 5.157 3.722 16.18 3.722 29.78s11.025 24.625 24.625 24.625c13.598 0 24.623-11.025 24.623-24.625S41.944 5.157 28.347 5.157zm-2.241 38.022c-.982.283-2.041.428-3.154.428a14.45 14.45 0 0 1-3.54-.424c-2.15-.541-3.74-1.57-4.48-2.895a3.69 3.69 0 0 1-.482-1.816c0-.652.156-1.312.463-1.967 1.18-2.51 4.283-4.197 7.722-4.197h.1a3.064 3.064 0 0 1-.416-1.537c0-.268.035-.539.105-.814-3.606-.084-6.306-2.725-6.306-6.207 0-2.461 1.965-4.855 4.776-5.824a7.784 7.784 0 0 1 2.543-.439h7.713c.264 0 .494.17.576.42a.604.604 0 0 1-.221.68l-1.725 1.248a.617.617 0 0 1-.357.115h-.617c.799.955 1.266 2.316 1.266 3.848 0 1.691-.855 3.289-2.41 4.506-1.201.936-1.25 1.191-1.25 1.729.016.295.854 1.252 1.775 1.904 2.152 1.523 2.953 3.014 2.953 5.508 0 2.595-1.977 4.847-5.034 5.734zm17.422-13.231a.607.607 0 0 1-.607.605h-4.383v4.385a.606.606 0 0 1-.607.607h-1.248a.606.606 0 0 1-.607-.607v-4.385H31.69a.606.606 0 0 1-.605-.605v-1.25c0-.334.273-.607.605-.607h4.385v-4.383c0-.336.271-.607.607-.607h1.248c.336 0 .607.271.607.607v4.383h4.383c.334 0 .607.273.607.607v1.25z" fill="#f54f4f" class="fill-000000"></path></svg>